<svg width="28" height="29" viewBox="0 0 28 29" fill="none" xmlns="http://www.w3.org/2000/svg">
<g clip-path="url(#clip0_59_763)">
<path d="M27.9866 14.7713C27.9866 13.5831 27.8913 12.7161 27.6851 11.817H14.2788V17.1796H22.148C21.9894 18.5123 21.1327 20.5192 19.2288 21.8678L19.2021 22.0474L23.4409 25.3705L23.7346 25.4002C26.4317 22.8794 27.9866 19.1705 27.9866 14.7713Z" fill="#4285F4"/>
<path d="M14.2788 28.9004C18.1341 28.9004 21.3706 27.6158 23.7346 25.4002L19.2288 21.8679C18.023 22.7188 16.4047 23.3129 14.2788 23.3129C10.5029 23.3129 7.29806 20.7922 6.15564 17.3081L5.98818 17.3225L1.58059 20.7745L1.52295 20.9366C3.87101 25.657 8.69412 28.9004 14.2788 28.9004Z" fill="#34A853"/>
<path d="M6.15573 17.3081C5.8543 16.409 5.67984 15.4456 5.67984 14.4502C5.67984 13.4547 5.8543 12.4914 6.13988 11.5923L6.13189 11.4008L1.66906 7.89331L1.52305 7.9636C0.555297 9.92243 0 12.1221 0 14.4502C0 16.7783 0.555297 18.9778 1.52305 20.9367L6.15573 17.3081Z" fill="#FBBC05"/>
<path d="M14.2788 5.58737C16.96 5.58737 18.7687 6.75944 19.7999 7.7389L23.8298 3.75705C21.3548 1.42897 18.1341 0 14.2788 0C8.69412 0 3.87101 3.24324 1.52295 7.9636L6.13978 11.5923C7.29806 8.10816 10.5029 5.58737 14.2788 5.58737Z" fill="#EB4335"/>
</g>
<defs>
<clipPath id="clip0_59_763">
<rect width="28" height="29" fill="white"/>
</clipPath>
</defs>
</svg>
