<?xml version="1.0" encoding="UTF-8"?>
<svg id="Layer_1" xmlns="http://www.w3.org/2000/svg" version="1.1" viewBox="0 0 122 98">
  <!-- Generator: Adobe Illustrator 30.1.0, SVG Export Plug-In . SVG Version: 2.1.1 Build 136)  -->
  <defs>
    <style>
      .st0 {
        fill: #9ba6ba;
      }
    </style>
  </defs>
  <path class="st0" d="M116.03,9.09c-2.99-1.86-5.72-2.87-9.1-3.85-1.09-.32-2.18-.64-3.3-.98-7.48-1.91-14.65-2.05-22.32-2.08q-1.73-.03-3.49-.06c-10.09-.05-23.98.4-31.45,8.31q-1.13,3.67-1,7c-.89-.08-1.77-.16-2.69-.25-11.24.02-21.45,5.51-29.5,12.94-7.85,8.13-10.15,17.21-10.19,28.19.18,10.04,3.51,18.11,10.51,25.38,10.22,9.5,19.73,12.63,33.56,12.14,6.66-.46,11.82-2.74,17.31-6.4q3.09-.27,6.87-.31c1.4-.02,2.79-.05,4.18-.07,2.18-.03,4.36-.06,6.54-.08,11.81-.12,25.08-.57,35.07-7.73,2.02-2.72,1.74-4.97,1.76-8.33.01-.66.02-1.31.03-1.99.02-2.17.02-4.34.02-6.52.01-1.51.02-3.02.02-4.53.02-3.17.02-6.33.01-9.5,0-4.06.03-8.11.07-12.17.02-3.12.03-6.24.02-9.36,0-1.49.01-2.99.03-4.48.02-2.1.01-4.19,0-6.28v-3.61q-.36-3.21-2.96-5.38ZM69.35,76.14c-6.44,7.49-13.15,12.6-23.28,13.63-12.33.14-19.61-2.48-28.57-11.03-6.07-6.56-8.54-13.86-8.31-22.73.72-10.16,4.61-17.97,12.06-24.97,10.35-7.84,24.07-9.42,35.87-3.95,9.58,5.69,14.9,13.2,17.94,23.72,1.15,9.67.25,17.34-5.71,25.33ZM111.37,77.43c-12.25,5.29-24.89,5.28-38,5,.63-1.68,1.3-3.35,2-5q.58-1.37,1.16-2.77,1.84-2.23,5.21-2.87c1.36-.04,2.71-.05,4.07-.05,1.44-.04,2.88-.08,4.32-.13q1.07-.04,2.16-.07c6.45-.34,12.89-3.11,19.08-3.11v9ZM111.37,61.43c-9.14,4.79-19.84,5.35-30,5-.03-1.48-.04-2.96-.06-4.44-.01-.82-.02-1.64-.04-2.49q.1-2.07,1.1-3.07c1.48-.2,2.96-.35,4.45-.46.91-.08,1.82-.16,2.76-.24,1.92-.16,3.84-.31,5.76-.46,5.19-.45,11.04-2.84,16.03-2.84v9ZM111.37,45.43c-9.84,4.71-19.17,5.31-30,5q-2-5.62-2-9c.63-.05,1.26-.1,1.91-.15,2.89-.24,5.77-.48,8.65-.72q1.49-.12,3.01-.24c6.14-.53,12.42-2.89,18.43-2.89v8ZM111.37,30.43c-11.29,4.56-24.9,6.16-37,4-4.08-2.38-6.56-4.98-9-9,3.37-1.03,6.4-1.09,9.91-1.03,1.16.02,2.31.03,3.5.04,2.41.04,4.82.07,7.22.12,8.66.08,17.24-3.13,25.37-3.13v9ZM107.65,16.5c-17.23,4.81-37.39,5.58-54.28-1.07-.33-.66-.66-1.32-1-2,1.42-.48,2.83-.96,4.25-1.44.79-.26,1.58-.53,2.39-.81,4.66-1.48,8.88-1.94,13.77-1.99.72-.01,1.44-.01,2.18-.02,1.53-.02,3.05-.03,4.58-.03,1.54-.02,3.08-.04,4.62-.07,9.82-.19,18.01.41,27.21,4.36q-1,2-3.72,3.07Z"/>
  <path class="st0" d="M39.37,35.43c-.1,2.47-.2,4.94-.31,7.42-.04,1.02-.08,2.02-.13,3.02q-.06,1.52-.12,3.01c-.04.97-.08,1.91-.12,2.86-.07,1.57-.16,3.13-.32,4.69-.89.89-1.76,1.8-2.63,2.71q-.97,1.06-1.93,2.1c-2.96,3.18-3.44,3.63-3.44,8.19,1.36.68,2.68,1.34,4,2,3.14-2.33,5.99-4.78,8.55-7.73q4.36-6.22,2.45-28.27h-6Z"/>
</svg>