<svg width="29" height="34" viewBox="0 0 29 34" fill="none" xmlns="http://www.w3.org/2000/svg">
<path d="M18.4287 12.0698C21.7998 15.9636 21.7535 22.2063 18.449 26.0405C18.4428 26.0483 18.4354 26.0567 18.4287 26.0646L14.637 30.4395C11.2928 34.2983 5.85189 34.2978 2.50817 30.4395C-0.836057 26.5815 -0.836057 20.3028 2.50817 16.4448L4.60183 14.029C5.15703 13.3884 6.11319 13.8142 6.14185 14.7195C6.17841 15.8733 6.35773 17.0325 6.6886 18.1519C6.80065 18.5309 6.72059 18.9502 6.47515 19.2334L5.73673 20.0854C4.1554 21.91 4.10581 24.881 5.67156 26.7234C7.25278 28.584 9.85176 28.5951 11.4451 26.7566L15.2368 22.3823C16.8274 20.5469 16.8208 17.5804 15.2368 15.7527C15.0279 15.5122 14.8176 15.3254 14.6533 15.1948C14.5371 15.1027 14.4411 14.9806 14.373 14.8381C14.305 14.6956 14.2667 14.5367 14.2613 14.3741C14.239 13.6862 14.4502 12.9772 14.9214 12.4336L16.1093 11.0629C16.4208 10.7034 16.9095 10.6593 17.2707 10.9502C17.6844 11.2835 18.0719 11.6581 18.4287 12.0698ZM26.3807 2.89385C23.037 -0.964355 17.5961 -0.964876 14.2519 2.89385L10.4602 7.26885C10.4535 7.27666 10.4461 7.28512 10.4399 7.29294C7.13541 11.127 7.08909 17.3698 10.4602 21.2636C10.817 21.6753 11.2044 22.0499 11.6181 22.3832C11.9793 22.6741 12.4681 22.6298 12.7795 22.2705L13.9675 20.8997C14.4386 20.3561 14.6499 19.6472 14.6275 18.9592C14.6221 18.7966 14.5839 18.6378 14.5158 18.4953C14.4477 18.3528 14.3518 18.2306 14.2355 18.1385C14.0712 18.008 13.8609 17.8211 13.6521 17.5806C12.0681 15.753 12.0614 12.7864 13.6521 10.9511L17.4437 6.57672C19.0371 4.73825 21.636 4.74932 23.2173 6.60993C24.783 8.45238 24.7335 11.4233 23.1521 13.2479L22.4137 14.1C22.1682 14.3832 22.0882 14.8024 22.2002 15.1815C22.5311 16.3009 22.7104 17.4601 22.747 18.6138C22.7757 19.5192 23.7318 19.945 24.287 19.3043L26.3807 16.8886C29.7249 13.0306 29.7249 6.75192 26.3807 2.89385Z" fill="white"/>
</svg>
